# xmcd CD database file
#
# Track frame offsets:
#	150
#	15652
#	35520
#	48612
#	63810
#	87879
#	104712
#	120932
#	135385
#	153790
#	171675
#	192377
#	206977
#	220322
#
# Disc length: 2986 seconds
#
# Revision: 0
# Processed by: cddbd v1.5.1PL0 Copyright (c) Steve Scherf et al.
# Submitted via: CDex 1.51
#
DISCID=c80ba80e
DTITLE=Tamara Stewart - The Way The World Is
DYEAR=2001
DGENRE=Country
TTITLE0=It's A Good Thing (You're Crazy)
TTITLE1=Simple Things
TTITLE2=Just The Way I Am
TTITLE3=Way Too Easy
TTITLE4=The Way The World Is
TTITLE5=Like I Do
TTITLE6=Lying Down
TTITLE7=Wild Child
TTITLE8=Here Comes The Rain (With Rick Price)
TTITLE9=Shelli
TTITLE10=When You've Lost Your Faith
TTITLE11=Nothing To Prove
TTITLE12=That Makes Me Cry
TTITLE13=The Way The World Is (Reprise)
EXTD=YEAR: 2001
EXTT0=
EXTT1=
EXTT2=
EXTT3=
EXTT4=
EXTT5=
EXTT6=
EXTT7=
EXTT8=
EXTT9=
EXTT10=
EXTT11=
EXTT12=
EXTT13=
PLAYORDER=
